<svg xmlns="http://www.w3.org/2000/svg" width="980.0" height="512.0" viewBox="0 0 980.0 512.0" role="img" aria-label="House technique or standard">
<title>House technique or standard</title>
<desc>Models citing each paper against distinct publishers citing it.</desc>
<rect width="980.0" height="512.0" fill="#fcfcfb"/>
<text x="24.0" y="30.0" font-family='system-ui, -apple-system, "Segoe UI", sans-serif' font-size="16" fill="#0b0b0b" text-anchor="start" font-weight="600" style="">House technique, or standard?</text><text x="24.0" y="50.0" font-family='system-ui, -apple-system, "Segoe UI", sans-serif' font-size="12" fill="#52514e" text-anchor="start" font-weight="normal" style="">Each of 418 papers by how many models cite it and how many distinct publishers do. Log x.</text>
<line x1="70.0" y1="384.0" x2="712.0" y2="384.0" stroke="#e1e0d9" stroke-width="1"/>
<text x="60.0" y="388.0" font-family='system-ui, -apple-system, "Segoe UI", sans-serif' font-size="11" fill="#898781" text-anchor="end" font-weight="normal" style="font-variant-numeric: tabular-nums;">1</text>
<line x1="70.0" y1="312.0" x2="712.0" y2="312.0" stroke="#e1e0d9" stroke-width="1"/>
<text x="60.0" y="316.0" font-family='system-ui, -apple-system, "Segoe UI", sans-serif' font-size="11" fill="#898781" text-anchor="end" font-weight="normal" style="font-variant-numeric: tabular-nums;">2</text>
<line x1="70.0" y1="240.0" x2="712.0" y2="240.0" stroke="#e1e0d9" stroke-width="1"/>
<text x="60.0" y="244.0" font-family='system-ui, -apple-system, "Segoe UI", sans-serif' font-size="11" fill="#898781" text-anchor="end" font-weight="normal" style="font-variant-numeric: tabular-nums;">3</text>
<line x1="70.0" y1="168.0" x2="712.0" y2="168.0" stroke="#e1e0d9" stroke-width="1"/>
<text x="60.0" y="172.0" font-family='system-ui, -apple-system, "Segoe UI", sans-serif' font-size="11" fill="#898781" text-anchor="end" font-weight="normal" style="font-variant-numeric: tabular-nums;">4</text>
<line x1="70.0" y1="96.0" x2="712.0" y2="96.0" stroke="#e1e0d9" stroke-width="1"/>
<text x="60.0" y="100.0" font-family='system-ui, -apple-system, "Segoe UI", sans-serif' font-size="11" fill="#898781" text-anchor="end" font-weight="normal" style="font-variant-numeric: tabular-nums;">5</text>
<line x1="70.0" y1="96.0" x2="70.0" y2="384.0" stroke="#e1e0d9" stroke-width="1"/>
<text x="70.0" y="404.0" font-family='system-ui, -apple-system, "Segoe UI", sans-serif' font-size="11" fill="#898781" text-anchor="middle" font-weight="normal" style="font-variant-numeric: tabular-nums;">1</text>
<line x1="262.5" y1="96.0" x2="262.5" y2="384.0" stroke="#e1e0d9" stroke-width="1"/>
<text x="262.5" y="404.0" font-family='system-ui, -apple-system, "Segoe UI", sans-serif' font-size="11" fill="#898781" text-anchor="middle" font-weight="normal" style="font-variant-numeric: tabular-nums;">3</text>
<line x1="473.5" y1="96.0" x2="473.5" y2="384.0" stroke="#e1e0d9" stroke-width="1"/>
<text x="473.5" y="404.0" font-family='system-ui, -apple-system, "Segoe UI", sans-serif' font-size="11" fill="#898781" text-anchor="middle" font-weight="normal" style="font-variant-numeric: tabular-nums;">10</text>
<line x1="666.0" y1="96.0" x2="666.0" y2="384.0" stroke="#e1e0d9" stroke-width="1"/>
<text x="666.0" y="404.0" font-family='system-ui, -apple-system, "Segoe UI", sans-serif' font-size="11" fill="#898781" text-anchor="middle" font-weight="normal" style="font-variant-numeric: tabular-nums;">30</text>
<text x="391.0" y="428.0" font-family='system-ui, -apple-system, "Segoe UI", sans-serif' font-size="12" fill="#52514e" text-anchor="middle" font-weight="normal" style="">models citing the paper</text>
<text x="60.0" y="82.0" font-family='system-ui, -apple-system, "Segoe UI", sans-serif' font-size="12" fill="#52514e" text-anchor="start" font-weight="normal" style="">distinct publishers</text>
<circle cx="191.5" cy="384.0" r="3.2" fill="#eb6834" fill-opacity="0.32" />
<circle cx="70.0" cy="384.0" r="3.2" fill="#eb6834" fill-opacity="0.32" />
<circle cx="70.0" cy="384.0" r="3.2" fill="#eb6834" fill-opacity="0.32" />
<circle cx="70.0" cy="384.0" r="3.2" fill="#eb6834" fill-opacity="0.32" />
<circle cx="191.5" cy="312.0" r="3.2" fill="#2a78d6" fill-opacity="0.32" />
<circle cx="352.0" cy="312.0" r="3.2" fill="#2a78d6" fill-opacity="0.32" />
<circle cx="191.5" cy="384.0" r="3.2" fill="#eb6834" fill-opacity="0.32" />
<circle cx="70.0" cy="384.0" r="3.2" fill="#eb6834" fill-opacity="0.32" />
<circle cx="70.0" cy="384.0" r="3.2" fill="#eb6834" fill-opacity="0.32" />
<circle cx="70.0" cy="384.0" r="3.2" fill="#eb6834" fill-opacity="0.32" />
<circle cx="352.0" cy="384.0" r="3.2" fill="#eb6834" fill-opacity="0.32" />
<circle cx="191.5" cy="384.0" r="3.2" fill="#eb6834" fill-opacity="0.32" />
<circle cx="70.0" cy="384.0" r="3.2" fill="#eb6834" fill-opacity="0.32" />
<circle cx="411.0" cy="312.0" r="3.2" fill="#2a78d6" fill-opacity="0.32" />
<circle cx="191.5" cy="384.0" r="3.2" fill="#eb6834" fill-opacity="0.32" />
<circle cx="70.0" cy="384.0" r="3.2" fill="#eb6834" fill-opacity="0.32" />
<circle cx="191.5" cy="384.0" r="3.2" fill="#eb6834" fill-opacity="0.32" />
<circle cx="191.5" cy="384.0" r="3.2" fill="#eb6834" fill-opacity="0.32" />
<circle cx="191.5" cy="384.0" r="3.2" fill="#eb6834" fill-opacity="0.32" />
<circle cx="191.5" cy="384.0" r="3.2" fill="#eb6834" fill-opacity="0.32" />
<circle cx="191.5" cy="384.0" r="3.2" fill="#eb6834" fill-opacity="0.32" />
<circle cx="191.5" cy="384.0" r="3.2" fill="#eb6834" fill-opacity="0.32" />
<circle cx="70.0" cy="384.0" r="3.2" fill="#eb6834" fill-opacity="0.32" />
<circle cx="411.0" cy="312.0" r="3.2" fill="#2a78d6" fill-opacity="0.32" />
<circle cx="352.0" cy="384.0" r="3.2" fill="#eb6834" fill-opacity="0.32" />
<circle cx="352.0" cy="312.0" r="3.2" fill="#2a78d6" fill-opacity="0.32" />
<circle cx="191.5" cy="384.0" r="3.2" fill="#eb6834" fill-opacity="0.32" />
<circle cx="191.5" cy="384.0" r="3.2" fill="#eb6834" fill-opacity="0.32" />
<circle cx="70.0" cy="384.0" r="3.2" fill="#eb6834" fill-opacity="0.32" />
<circle cx="70.0" cy="384.0" r="3.2" fill="#eb6834" fill-opacity="0.32" />
<circle cx="191.5" cy="384.0" r="3.2" fill="#eb6834" fill-opacity="0.32" />
<circle cx="384.0" cy="312.0" r="3.2" fill="#2a78d6" fill-opacity="0.32" />
<circle cx="70.0" cy="384.0" r="3.2" fill="#eb6834" fill-opacity="0.32" />
<circle cx="191.5" cy="384.0" r="3.2" fill="#eb6834" fill-opacity="0.32" />
<circle cx="352.0" cy="384.0" r="3.2" fill="#eb6834" fill-opacity="0.32" />
<circle cx="70.0" cy="384.0" r="3.2" fill="#eb6834" fill-opacity="0.32" />
<circle cx="411.0" cy="312.0" r="3.2" fill="#2a78d6" fill-opacity="0.32" />
<circle cx="70.0" cy="384.0" r="3.2" fill="#eb6834" fill-opacity="0.32" />
<circle cx="411.0" cy="312.0" r="3.2" fill="#2a78d6" fill-opacity="0.32" />
<circle cx="455.0" cy="240.0" r="3.2" fill="#2a78d6" fill-opacity="0.32" />
<circle cx="191.5" cy="384.0" r="3.2" fill="#eb6834" fill-opacity="0.32" />
<circle cx="70.0" cy="384.0" r="3.2" fill="#eb6834" fill-opacity="0.32" />
<circle cx="70.0" cy="384.0" r="3.2" fill="#eb6834" fill-opacity="0.32" />
<circle cx="411.0" cy="312.0" r="3.2" fill="#2a78d6" fill-opacity="0.32" />
<circle cx="191.5" cy="384.0" r="3.2" fill="#eb6834" fill-opacity="0.32" />
<circle cx="352.0" cy="312.0" r="3.2" fill="#2a78d6" fill-opacity="0.32" />
<circle cx="262.5" cy="384.0" r="3.2" fill="#eb6834" fill-opacity="0.32" />
<circle cx="70.0" cy="384.0" r="3.2" fill="#eb6834" fill-opacity="0.32" />
<circle cx="70.0" cy="384.0" r="3.2" fill="#eb6834" fill-opacity="0.32" />
<circle cx="490.2" cy="312.0" r="3.2" fill="#2a78d6" fill-opacity="0.32" />
<circle cx="70.0" cy="384.0" r="3.2" fill="#eb6834" fill-opacity="0.32" />
<circle cx="70.0" cy="384.0" r="3.2" fill="#eb6834" fill-opacity="0.32" />
<circle cx="70.0" cy="384.0" r="3.2" fill="#eb6834" fill-opacity="0.32" />
<circle cx="70.0" cy="384.0" r="3.2" fill="#eb6834" fill-opacity="0.32" />
<circle cx="352.0" cy="384.0" r="3.2" fill="#eb6834" fill-opacity="0.32" />
<circle cx="352.0" cy="384.0" r="3.2" fill="#eb6834" fill-opacity="0.32" />
<circle cx="455.0" cy="312.0" r="3.2" fill="#2a78d6" fill-opacity="0.32" />
<circle cx="352.0" cy="312.0" r="3.2" fill="#2a78d6" fill-opacity="0.32" />
<circle cx="191.5" cy="384.0" r="3.2" fill="#eb6834" fill-opacity="0.32" />
<circle cx="411.0" cy="312.0" r="3.2" fill="#2a78d6" fill-opacity="0.32" />
<circle cx="352.0" cy="168.0" r="5.0" fill="#2a78d6" fill-opacity="0.9" stroke="#fcfcfb" stroke-width="1.5"/>
<circle cx="191.5" cy="312.0" r="3.2" fill="#2a78d6" fill-opacity="0.32" />
<circle cx="70.0" cy="384.0" r="3.2" fill="#eb6834" fill-opacity="0.32" />
<circle cx="411.0" cy="312.0" r="3.2" fill="#2a78d6" fill-opacity="0.32" />
<circle cx="191.5" cy="384.0" r="3.2" fill="#eb6834" fill-opacity="0.32" />
<circle cx="70.0" cy="384.0" r="3.2" fill="#eb6834" fill-opacity="0.32" />
<circle cx="70.0" cy="384.0" r="3.2" fill="#eb6834" fill-opacity="0.32" />
<circle cx="70.0" cy="384.0" r="3.2" fill="#eb6834" fill-opacity="0.32" />
<circle cx="70.0" cy="384.0" r="3.2" fill="#eb6834" fill-opacity="0.32" />
<circle cx="262.5" cy="240.0" r="5.0" fill="#2a78d6" fill-opacity="0.9" stroke="#fcfcfb" stroke-width="1.5"/>
<circle cx="70.0" cy="384.0" r="3.2" fill="#eb6834" fill-opacity="0.32" />
<circle cx="70.0" cy="384.0" r="3.2" fill="#eb6834" fill-opacity="0.32" />
<circle cx="191.5" cy="312.0" r="3.2" fill="#2a78d6" fill-opacity="0.32" />
<circle cx="352.0" cy="312.0" r="3.2" fill="#2a78d6" fill-opacity="0.32" />
<circle cx="191.5" cy="384.0" r="3.2" fill="#eb6834" fill-opacity="0.32" />
<circle cx="191.5" cy="384.0" r="3.2" fill="#eb6834" fill-opacity="0.32" />
<circle cx="70.0" cy="384.0" r="3.2" fill="#eb6834" fill-opacity="0.32" />
<circle cx="70.0" cy="384.0" r="3.2" fill="#eb6834" fill-opacity="0.32" />
<circle cx="191.5" cy="312.0" r="3.2" fill="#2a78d6" fill-opacity="0.32" />
<circle cx="70.0" cy="384.0" r="3.2" fill="#eb6834" fill-opacity="0.32" />
<circle cx="70.0" cy="384.0" r="3.2" fill="#eb6834" fill-opacity="0.32" />
<circle cx="411.0" cy="312.0" r="3.2" fill="#2a78d6" fill-opacity="0.32" />
<circle cx="191.5" cy="384.0" r="3.2" fill="#eb6834" fill-opacity="0.32" />
<circle cx="70.0" cy="384.0" r="3.2" fill="#eb6834" fill-opacity="0.32" />
<circle cx="70.0" cy="384.0" r="3.2" fill="#eb6834" fill-opacity="0.32" />
<circle cx="70.0" cy="384.0" r="3.2" fill="#eb6834" fill-opacity="0.32" />
<circle cx="434.4" cy="240.0" r="3.2" fill="#2a78d6" fill-opacity="0.32" />
<circle cx="191.5" cy="384.0" r="3.2" fill="#eb6834" fill-opacity="0.32" />
<circle cx="191.5" cy="312.0" r="3.2" fill="#2a78d6" fill-opacity="0.32" />
<circle cx="455.0" cy="312.0" r="3.2" fill="#2a78d6" fill-opacity="0.32" />
<circle cx="70.0" cy="384.0" r="3.2" fill="#eb6834" fill-opacity="0.32" />
<circle cx="191.5" cy="384.0" r="3.2" fill="#eb6834" fill-opacity="0.32" />
<circle cx="70.0" cy="384.0" r="3.2" fill="#eb6834" fill-opacity="0.32" />
<circle cx="70.0" cy="384.0" r="3.2" fill="#eb6834" fill-opacity="0.32" />
<circle cx="191.5" cy="384.0" r="3.2" fill="#eb6834" fill-opacity="0.32" />
<circle cx="352.0" cy="384.0" r="3.2" fill="#eb6834" fill-opacity="0.32" />
<circle cx="70.0" cy="384.0" r="3.2" fill="#eb6834" fill-opacity="0.32" />
<circle cx="384.0" cy="240.0" r="5.0" fill="#2a78d6" fill-opacity="0.9" stroke="#fcfcfb" stroke-width="1.5"/>
<circle cx="411.0" cy="312.0" r="3.2" fill="#2a78d6" fill-opacity="0.32" />
<circle cx="70.0" cy="384.0" r="3.2" fill="#eb6834" fill-opacity="0.32" />
<circle cx="70.0" cy="384.0" r="3.2" fill="#eb6834" fill-opacity="0.32" />
<circle cx="70.0" cy="384.0" r="3.2" fill="#eb6834" fill-opacity="0.32" />
<circle cx="70.0" cy="384.0" r="3.2" fill="#eb6834" fill-opacity="0.32" />
<circle cx="70.0" cy="384.0" r="3.2" fill="#eb6834" fill-opacity="0.32" />
<circle cx="70.0" cy="384.0" r="3.2" fill="#eb6834" fill-opacity="0.32" />
<circle cx="70.0" cy="384.0" r="3.2" fill="#eb6834" fill-opacity="0.32" />
<circle cx="473.5" cy="240.0" r="3.2" fill="#2a78d6" fill-opacity="0.32" />
<circle cx="352.0" cy="384.0" r="3.2" fill="#eb6834" fill-opacity="0.32" />
<circle cx="191.5" cy="312.0" r="3.2" fill="#2a78d6" fill-opacity="0.32" />
<circle cx="70.0" cy="384.0" r="3.2" fill="#eb6834" fill-opacity="0.32" />
<circle cx="352.0" cy="312.0" r="3.2" fill="#2a78d6" fill-opacity="0.32" />
<circle cx="70.0" cy="384.0" r="3.2" fill="#eb6834" fill-opacity="0.32" />
<circle cx="70.0" cy="384.0" r="3.2" fill="#eb6834" fill-opacity="0.32" />
<circle cx="70.0" cy="384.0" r="3.2" fill="#eb6834" fill-opacity="0.32" />
<circle cx="191.5" cy="384.0" r="3.2" fill="#eb6834" fill-opacity="0.32" />
<circle cx="70.0" cy="384.0" r="3.2" fill="#eb6834" fill-opacity="0.32" />
<circle cx="352.0" cy="312.0" r="3.2" fill="#2a78d6" fill-opacity="0.32" />
<circle cx="70.0" cy="384.0" r="3.2" fill="#eb6834" fill-opacity="0.32" />
<circle cx="191.5" cy="384.0" r="3.2" fill="#eb6834" fill-opacity="0.32" />
<circle cx="70.0" cy="384.0" r="3.2" fill="#eb6834" fill-opacity="0.32" />
<circle cx="70.0" cy="384.0" r="3.2" fill="#eb6834" fill-opacity="0.32" />
<circle cx="191.5" cy="384.0" r="3.2" fill="#eb6834" fill-opacity="0.32" />
<circle cx="70.0" cy="384.0" r="3.2" fill="#eb6834" fill-opacity="0.32" />
<circle cx="70.0" cy="384.0" r="3.2" fill="#eb6834" fill-opacity="0.32" />
<circle cx="411.0" cy="312.0" r="3.2" fill="#2a78d6" fill-opacity="0.32" />
<circle cx="70.0" cy="384.0" r="3.2" fill="#eb6834" fill-opacity="0.32" />
<circle cx="70.0" cy="384.0" r="3.2" fill="#eb6834" fill-opacity="0.32" />
<circle cx="70.0" cy="384.0" r="3.2" fill="#eb6834" fill-opacity="0.32" />
<circle cx="70.0" cy="384.0" r="3.2" fill="#eb6834" fill-opacity="0.32" />
<circle cx="70.0" cy="384.0" r="3.2" fill="#eb6834" fill-opacity="0.32" />
<circle cx="411.0" cy="312.0" r="3.2" fill="#2a78d6" fill-opacity="0.32" />
<circle cx="262.5" cy="384.0" r="3.2" fill="#eb6834" fill-opacity="0.32" />
<circle cx="191.5" cy="312.0" r="3.2" fill="#2a78d6" fill-opacity="0.32" />
<circle cx="191.5" cy="384.0" r="3.2" fill="#eb6834" fill-opacity="0.32" />
<circle cx="70.0" cy="384.0" r="3.2" fill="#eb6834" fill-opacity="0.32" />
<circle cx="191.5" cy="384.0" r="3.2" fill="#eb6834" fill-opacity="0.32" />
<circle cx="411.0" cy="384.0" r="3.2" fill="#eb6834" fill-opacity="0.32" />
<circle cx="70.0" cy="384.0" r="3.2" fill="#eb6834" fill-opacity="0.32" />
<circle cx="70.0" cy="384.0" r="3.2" fill="#eb6834" fill-opacity="0.32" />
<circle cx="70.0" cy="384.0" r="3.2" fill="#eb6834" fill-opacity="0.32" />
<circle cx="70.0" cy="384.0" r="3.2" fill="#eb6834" fill-opacity="0.32" />
<circle cx="191.5" cy="384.0" r="3.2" fill="#eb6834" fill-opacity="0.32" />
<circle cx="70.0" cy="384.0" r="3.2" fill="#eb6834" fill-opacity="0.32" />
<circle cx="191.5" cy="384.0" r="3.2" fill="#eb6834" fill-opacity="0.32" />
<circle cx="411.0" cy="312.0" r="3.2" fill="#2a78d6" fill-opacity="0.32" />
<circle cx="70.0" cy="384.0" r="3.2" fill="#eb6834" fill-opacity="0.32" />
<circle cx="70.0" cy="384.0" r="3.2" fill="#eb6834" fill-opacity="0.32" />
<circle cx="352.0" cy="312.0" r="3.2" fill="#2a78d6" fill-opacity="0.32" />
<circle cx="191.5" cy="312.0" r="3.2" fill="#2a78d6" fill-opacity="0.32" />
<circle cx="191.5" cy="384.0" r="3.2" fill="#eb6834" fill-opacity="0.32" />
<circle cx="70.0" cy="384.0" r="3.2" fill="#eb6834" fill-opacity="0.32" />
<circle cx="70.0" cy="384.0" r="3.2" fill="#eb6834" fill-opacity="0.32" />
<circle cx="70.0" cy="384.0" r="3.2" fill="#eb6834" fill-opacity="0.32" />
<circle cx="70.0" cy="384.0" r="3.2" fill="#eb6834" fill-opacity="0.32" />
<circle cx="262.5" cy="240.0" r="5.0" fill="#2a78d6" fill-opacity="0.9" stroke="#fcfcfb" stroke-width="1.5"/>
<circle cx="191.5" cy="312.0" r="3.2" fill="#2a78d6" fill-opacity="0.32" />
<circle cx="411.0" cy="384.0" r="3.2" fill="#eb6834" fill-opacity="0.32" />
<circle cx="70.0" cy="384.0" r="3.2" fill="#eb6834" fill-opacity="0.32" />
<circle cx="70.0" cy="384.0" r="3.2" fill="#eb6834" fill-opacity="0.32" />
<circle cx="262.5" cy="384.0" r="3.2" fill="#eb6834" fill-opacity="0.32" />
<circle cx="70.0" cy="384.0" r="3.2" fill="#eb6834" fill-opacity="0.32" />
<circle cx="70.0" cy="384.0" r="3.2" fill="#eb6834" fill-opacity="0.32" />
<circle cx="70.0" cy="384.0" r="3.2" fill="#eb6834" fill-opacity="0.32" />
<circle cx="191.5" cy="384.0" r="3.2" fill="#eb6834" fill-opacity="0.32" />
<circle cx="352.0" cy="312.0" r="3.2" fill="#2a78d6" fill-opacity="0.32" />
<circle cx="70.0" cy="384.0" r="3.2" fill="#eb6834" fill-opacity="0.32" />
<circle cx="70.0" cy="384.0" r="3.2" fill="#eb6834" fill-opacity="0.32" />
<circle cx="411.0" cy="384.0" r="3.2" fill="#eb6834" fill-opacity="0.32" />
<circle cx="70.0" cy="384.0" r="3.2" fill="#eb6834" fill-opacity="0.32" />
<circle cx="70.0" cy="384.0" r="3.2" fill="#eb6834" fill-opacity="0.32" />
<circle cx="70.0" cy="384.0" r="3.2" fill="#eb6834" fill-opacity="0.32" />
<circle cx="70.0" cy="384.0" r="3.2" fill="#eb6834" fill-opacity="0.32" />
<circle cx="70.0" cy="384.0" r="3.2" fill="#eb6834" fill-opacity="0.32" />
<circle cx="70.0" cy="384.0" r="3.2" fill="#eb6834" fill-opacity="0.32" />
<circle cx="70.0" cy="384.0" r="3.2" fill="#eb6834" fill-opacity="0.32" />
<circle cx="191.5" cy="312.0" r="3.2" fill="#2a78d6" fill-opacity="0.32" />
<circle cx="191.5" cy="312.0" r="3.2" fill="#2a78d6" fill-opacity="0.32" />
<circle cx="191.5" cy="384.0" r="3.2" fill="#eb6834" fill-opacity="0.32" />
<circle cx="70.0" cy="384.0" r="3.2" fill="#eb6834" fill-opacity="0.32" />
<circle cx="70.0" cy="384.0" r="3.2" fill="#eb6834" fill-opacity="0.32" />
<circle cx="191.5" cy="384.0" r="3.2" fill="#eb6834" fill-opacity="0.32" />
<circle cx="191.5" cy="384.0" r="3.2" fill="#eb6834" fill-opacity="0.32" />
<circle cx="191.5" cy="312.0" r="3.2" fill="#2a78d6" fill-opacity="0.32" />
<circle cx="434.4" cy="384.0" r="3.2" fill="#eb6834" fill-opacity="0.32" />
<circle cx="70.0" cy="384.0" r="3.2" fill="#eb6834" fill-opacity="0.32" />
<circle cx="70.0" cy="384.0" r="3.2" fill="#eb6834" fill-opacity="0.32" />
<circle cx="352.0" cy="312.0" r="3.2" fill="#2a78d6" fill-opacity="0.32" />
<circle cx="455.0" cy="312.0" r="3.2" fill="#2a78d6" fill-opacity="0.32" />
<circle cx="70.0" cy="384.0" r="3.2" fill="#eb6834" fill-opacity="0.32" />
<circle cx="262.5" cy="384.0" r="3.2" fill="#eb6834" fill-opacity="0.32" />
<circle cx="70.0" cy="384.0" r="3.2" fill="#eb6834" fill-opacity="0.32" />
<circle cx="70.0" cy="384.0" r="3.2" fill="#eb6834" fill-opacity="0.32" />
<circle cx="70.0" cy="384.0" r="3.2" fill="#eb6834" fill-opacity="0.32" />
<circle cx="70.0" cy="384.0" r="3.2" fill="#eb6834" fill-opacity="0.32" />
<circle cx="191.5" cy="384.0" r="3.2" fill="#eb6834" fill-opacity="0.32" />
<circle cx="352.0" cy="312.0" r="3.2" fill="#2a78d6" fill-opacity="0.32" />
<circle cx="384.0" cy="312.0" r="3.2" fill="#2a78d6" fill-opacity="0.32" />
<circle cx="70.0" cy="384.0" r="3.2" fill="#eb6834" fill-opacity="0.32" />
<circle cx="191.5" cy="384.0" r="3.2" fill="#eb6834" fill-opacity="0.32" />
<circle cx="191.5" cy="384.0" r="3.2" fill="#eb6834" fill-opacity="0.32" />
<circle cx="455.0" cy="384.0" r="5.0" fill="#eb6834" fill-opacity="0.9" stroke="#fcfcfb" stroke-width="1.5"/>
<circle cx="384.0" cy="384.0" r="3.2" fill="#eb6834" fill-opacity="0.32" />
<circle cx="411.0" cy="312.0" r="3.2" fill="#2a78d6" fill-opacity="0.32" />
<circle cx="191.5" cy="312.0" r="3.2" fill="#2a78d6" fill-opacity="0.32" />
<circle cx="384.0" cy="312.0" r="3.2" fill="#2a78d6" fill-opacity="0.32" />
<circle cx="191.5" cy="384.0" r="3.2" fill="#eb6834" fill-opacity="0.32" />
<circle cx="70.0" cy="384.0" r="3.2" fill="#eb6834" fill-opacity="0.32" />
<circle cx="411.0" cy="312.0" r="3.2" fill="#2a78d6" fill-opacity="0.32" />
<circle cx="70.0" cy="384.0" r="3.2" fill="#eb6834" fill-opacity="0.32" />
<circle cx="70.0" cy="384.0" r="3.2" fill="#eb6834" fill-opacity="0.32" />
<circle cx="70.0" cy="384.0" r="3.2" fill="#eb6834" fill-opacity="0.32" />
<circle cx="70.0" cy="384.0" r="3.2" fill="#eb6834" fill-opacity="0.32" />
<circle cx="70.0" cy="384.0" r="3.2" fill="#eb6834" fill-opacity="0.32" />
<circle cx="70.0" cy="384.0" r="3.2" fill="#eb6834" fill-opacity="0.32" />
<circle cx="70.0" cy="384.0" r="3.2" fill="#eb6834" fill-opacity="0.32" />
<circle cx="70.0" cy="384.0" r="3.2" fill="#eb6834" fill-opacity="0.32" />
<circle cx="70.0" cy="384.0" r="3.2" fill="#eb6834" fill-opacity="0.32" />
<circle cx="70.0" cy="384.0" r="3.2" fill="#eb6834" fill-opacity="0.32" />
<circle cx="70.0" cy="384.0" r="3.2" fill="#eb6834" fill-opacity="0.32" />
<circle cx="70.0" cy="384.0" r="3.2" fill="#eb6834" fill-opacity="0.32" />
<circle cx="191.5" cy="384.0" r="3.2" fill="#eb6834" fill-opacity="0.32" />
<circle cx="352.0" cy="312.0" r="3.2" fill="#2a78d6" fill-opacity="0.32" />
<circle cx="532.5" cy="240.0" r="3.2" fill="#2a78d6" fill-opacity="0.32" />
<circle cx="688.0" cy="240.0" r="3.2" fill="#2a78d6" fill-opacity="0.32" />
<circle cx="70.0" cy="384.0" r="3.2" fill="#eb6834" fill-opacity="0.32" />
<circle cx="455.0" cy="384.0" r="5.0" fill="#eb6834" fill-opacity="0.9" stroke="#fcfcfb" stroke-width="1.5"/>
<circle cx="191.5" cy="312.0" r="3.2" fill="#2a78d6" fill-opacity="0.32" />
<circle cx="70.0" cy="384.0" r="3.2" fill="#eb6834" fill-opacity="0.32" />
<circle cx="70.0" cy="384.0" r="3.2" fill="#eb6834" fill-opacity="0.32" />
<circle cx="70.0" cy="384.0" r="3.2" fill="#eb6834" fill-opacity="0.32" />
<circle cx="70.0" cy="384.0" r="3.2" fill="#eb6834" fill-opacity="0.32" />
<circle cx="191.5" cy="384.0" r="3.2" fill="#eb6834" fill-opacity="0.32" />
<circle cx="455.0" cy="384.0" r="5.0" fill="#eb6834" fill-opacity="0.9" stroke="#fcfcfb" stroke-width="1.5"/>
<circle cx="191.5" cy="384.0" r="3.2" fill="#eb6834" fill-opacity="0.32" />
<circle cx="70.0" cy="384.0" r="3.2" fill="#eb6834" fill-opacity="0.32" />
<circle cx="70.0" cy="384.0" r="3.2" fill="#eb6834" fill-opacity="0.32" />
<circle cx="191.5" cy="384.0" r="3.2" fill="#eb6834" fill-opacity="0.32" />
<circle cx="352.0" cy="312.0" r="3.2" fill="#2a78d6" fill-opacity="0.32" />
<circle cx="384.0" cy="384.0" r="3.2" fill="#eb6834" fill-opacity="0.32" />
<circle cx="70.0" cy="384.0" r="3.2" fill="#eb6834" fill-opacity="0.32" />
<circle cx="352.0" cy="312.0" r="3.2" fill="#2a78d6" fill-opacity="0.32" />
<circle cx="70.0" cy="384.0" r="3.2" fill="#eb6834" fill-opacity="0.32" />
<circle cx="70.0" cy="384.0" r="3.2" fill="#eb6834" fill-opacity="0.32" />
<circle cx="352.0" cy="312.0" r="3.2" fill="#2a78d6" fill-opacity="0.32" />
<circle cx="70.0" cy="384.0" r="3.2" fill="#eb6834" fill-opacity="0.32" />
<circle cx="191.5" cy="384.0" r="3.2" fill="#eb6834" fill-opacity="0.32" />
<circle cx="411.0" cy="384.0" r="3.2" fill="#eb6834" fill-opacity="0.32" />
<circle cx="262.5" cy="312.0" r="3.2" fill="#2a78d6" fill-opacity="0.32" />
<circle cx="191.5" cy="312.0" r="3.2" fill="#2a78d6" fill-opacity="0.32" />
<circle cx="70.0" cy="384.0" r="3.2" fill="#eb6834" fill-opacity="0.32" />
<circle cx="384.0" cy="384.0" r="3.2" fill="#eb6834" fill-opacity="0.32" />
<circle cx="70.0" cy="384.0" r="3.2" fill="#eb6834" fill-opacity="0.32" />
<circle cx="191.5" cy="384.0" r="3.2" fill="#eb6834" fill-opacity="0.32" />
<circle cx="70.0" cy="384.0" r="3.2" fill="#eb6834" fill-opacity="0.32" />
<circle cx="70.0" cy="384.0" r="3.2" fill="#eb6834" fill-opacity="0.32" />
<circle cx="191.5" cy="384.0" r="3.2" fill="#eb6834" fill-opacity="0.32" />
<circle cx="262.5" cy="312.0" r="3.2" fill="#2a78d6" fill-opacity="0.32" />
<circle cx="312.9" cy="384.0" r="3.2" fill="#eb6834" fill-opacity="0.32" />
<circle cx="70.0" cy="384.0" r="3.2" fill="#eb6834" fill-opacity="0.32" />
<circle cx="70.0" cy="384.0" r="3.2" fill="#eb6834" fill-opacity="0.32" />
<circle cx="70.0" cy="384.0" r="3.2" fill="#eb6834" fill-opacity="0.32" />
<circle cx="70.0" cy="384.0" r="3.2" fill="#eb6834" fill-opacity="0.32" />
<circle cx="490.2" cy="312.0" r="3.2" fill="#2a78d6" fill-opacity="0.32" />
<circle cx="70.0" cy="384.0" r="3.2" fill="#eb6834" fill-opacity="0.32" />
<circle cx="70.0" cy="384.0" r="3.2" fill="#eb6834" fill-opacity="0.32" />
<circle cx="70.0" cy="384.0" r="3.2" fill="#eb6834" fill-opacity="0.32" />
<circle cx="70.0" cy="384.0" r="3.2" fill="#eb6834" fill-opacity="0.32" />
<circle cx="70.0" cy="384.0" r="3.2" fill="#eb6834" fill-opacity="0.32" />
<circle cx="352.0" cy="312.0" r="3.2" fill="#2a78d6" fill-opacity="0.32" />
<circle cx="70.0" cy="384.0" r="3.2" fill="#eb6834" fill-opacity="0.32" />
<circle cx="70.0" cy="384.0" r="3.2" fill="#eb6834" fill-opacity="0.32" />
<circle cx="352.0" cy="312.0" r="3.2" fill="#2a78d6" fill-opacity="0.32" />
<circle cx="191.5" cy="384.0" r="3.2" fill="#eb6834" fill-opacity="0.32" />
<circle cx="70.0" cy="384.0" r="3.2" fill="#eb6834" fill-opacity="0.32" />
<circle cx="262.5" cy="384.0" r="3.2" fill="#eb6834" fill-opacity="0.32" />
<circle cx="70.0" cy="384.0" r="3.2" fill="#eb6834" fill-opacity="0.32" />
<circle cx="70.0" cy="384.0" r="3.2" fill="#eb6834" fill-opacity="0.32" />
<circle cx="70.0" cy="384.0" r="3.2" fill="#eb6834" fill-opacity="0.32" />
<circle cx="262.5" cy="384.0" r="3.2" fill="#eb6834" fill-opacity="0.32" />
<circle cx="191.5" cy="312.0" r="3.2" fill="#2a78d6" fill-opacity="0.32" />
<circle cx="70.0" cy="384.0" r="3.2" fill="#eb6834" fill-opacity="0.32" />
<circle cx="70.0" cy="384.0" r="3.2" fill="#eb6834" fill-opacity="0.32" />
<circle cx="70.0" cy="384.0" r="3.2" fill="#eb6834" fill-opacity="0.32" />
<circle cx="70.0" cy="384.0" r="3.2" fill="#eb6834" fill-opacity="0.32" />
<circle cx="70.0" cy="384.0" r="3.2" fill="#eb6834" fill-opacity="0.32" />
<circle cx="70.0" cy="384.0" r="3.2" fill="#eb6834" fill-opacity="0.32" />
<circle cx="70.0" cy="384.0" r="3.2" fill="#eb6834" fill-opacity="0.32" />
<circle cx="640.9" cy="312.0" r="3.2" fill="#2a78d6" fill-opacity="0.32" />
<circle cx="70.0" cy="384.0" r="3.2" fill="#eb6834" fill-opacity="0.32" />
<circle cx="70.0" cy="384.0" r="3.2" fill="#eb6834" fill-opacity="0.32" />
<circle cx="70.0" cy="384.0" r="3.2" fill="#eb6834" fill-opacity="0.32" />
<circle cx="262.5" cy="384.0" r="3.2" fill="#eb6834" fill-opacity="0.32" />
<circle cx="191.5" cy="384.0" r="3.2" fill="#eb6834" fill-opacity="0.32" />
<circle cx="70.0" cy="384.0" r="3.2" fill="#eb6834" fill-opacity="0.32" />
<circle cx="191.5" cy="384.0" r="3.2" fill="#eb6834" fill-opacity="0.32" />
<circle cx="70.0" cy="384.0" r="3.2" fill="#eb6834" fill-opacity="0.32" />
<circle cx="191.5" cy="384.0" r="3.2" fill="#eb6834" fill-opacity="0.32" />
<circle cx="70.0" cy="384.0" r="3.2" fill="#eb6834" fill-opacity="0.32" />
<circle cx="70.0" cy="384.0" r="3.2" fill="#eb6834" fill-opacity="0.32" />
<circle cx="70.0" cy="384.0" r="3.2" fill="#eb6834" fill-opacity="0.32" />
<circle cx="70.0" cy="384.0" r="3.2" fill="#eb6834" fill-opacity="0.32" />
<circle cx="70.0" cy="384.0" r="3.2" fill="#eb6834" fill-opacity="0.32" />
<circle cx="70.0" cy="384.0" r="3.2" fill="#eb6834" fill-opacity="0.32" />
<circle cx="70.0" cy="384.0" r="3.2" fill="#eb6834" fill-opacity="0.32" />
<circle cx="490.2" cy="312.0" r="3.2" fill="#2a78d6" fill-opacity="0.32" />
<circle cx="532.5" cy="240.0" r="3.2" fill="#2a78d6" fill-opacity="0.32" />
<circle cx="191.5" cy="312.0" r="3.2" fill="#2a78d6" fill-opacity="0.32" />
<circle cx="70.0" cy="384.0" r="3.2" fill="#eb6834" fill-opacity="0.32" />
<circle cx="191.5" cy="384.0" r="3.2" fill="#eb6834" fill-opacity="0.32" />
<circle cx="70.0" cy="384.0" r="3.2" fill="#eb6834" fill-opacity="0.32" />
<circle cx="70.0" cy="384.0" r="3.2" fill="#eb6834" fill-opacity="0.32" />
<circle cx="70.0" cy="384.0" r="3.2" fill="#eb6834" fill-opacity="0.32" />
<circle cx="70.0" cy="384.0" r="3.2" fill="#eb6834" fill-opacity="0.32" />
<circle cx="191.5" cy="384.0" r="3.2" fill="#eb6834" fill-opacity="0.32" />
<circle cx="70.0" cy="384.0" r="3.2" fill="#eb6834" fill-opacity="0.32" />
<circle cx="70.0" cy="384.0" r="3.2" fill="#eb6834" fill-opacity="0.32" />
<circle cx="191.5" cy="384.0" r="3.2" fill="#eb6834" fill-opacity="0.32" />
<circle cx="191.5" cy="384.0" r="3.2" fill="#eb6834" fill-opacity="0.32" />
<circle cx="70.0" cy="384.0" r="3.2" fill="#eb6834" fill-opacity="0.32" />
<circle cx="70.0" cy="384.0" r="3.2" fill="#eb6834" fill-opacity="0.32" />
<circle cx="191.5" cy="384.0" r="3.2" fill="#eb6834" fill-opacity="0.32" />
<circle cx="191.5" cy="384.0" r="3.2" fill="#eb6834" fill-opacity="0.32" />
<circle cx="70.0" cy="384.0" r="3.2" fill="#eb6834" fill-opacity="0.32" />
<circle cx="70.0" cy="384.0" r="3.2" fill="#eb6834" fill-opacity="0.32" />
<circle cx="312.9" cy="384.0" r="3.2" fill="#eb6834" fill-opacity="0.32" />
<circle cx="70.0" cy="384.0" r="3.2" fill="#eb6834" fill-opacity="0.32" />
<circle cx="70.0" cy="384.0" r="3.2" fill="#eb6834" fill-opacity="0.32" />
<circle cx="70.0" cy="384.0" r="3.2" fill="#eb6834" fill-opacity="0.32" />
<circle cx="262.5" cy="384.0" r="3.2" fill="#eb6834" fill-opacity="0.32" />
<circle cx="70.0" cy="384.0" r="3.2" fill="#eb6834" fill-opacity="0.32" />
<circle cx="70.0" cy="384.0" r="3.2" fill="#eb6834" fill-opacity="0.32" />
<circle cx="352.0" cy="312.0" r="3.2" fill="#2a78d6" fill-opacity="0.32" />
<circle cx="70.0" cy="384.0" r="3.2" fill="#eb6834" fill-opacity="0.32" />
<circle cx="473.5" cy="240.0" r="3.2" fill="#2a78d6" fill-opacity="0.32" />
<circle cx="384.0" cy="384.0" r="3.2" fill="#eb6834" fill-opacity="0.32" />
<circle cx="352.0" cy="312.0" r="3.2" fill="#2a78d6" fill-opacity="0.32" />
<circle cx="70.0" cy="384.0" r="3.2" fill="#eb6834" fill-opacity="0.32" />
<circle cx="70.0" cy="384.0" r="3.2" fill="#eb6834" fill-opacity="0.32" />
<circle cx="70.0" cy="384.0" r="3.2" fill="#eb6834" fill-opacity="0.32" />
<circle cx="70.0" cy="384.0" r="3.2" fill="#eb6834" fill-opacity="0.32" />
<circle cx="191.5" cy="384.0" r="3.2" fill="#eb6834" fill-opacity="0.32" />
<circle cx="191.5" cy="384.0" r="3.2" fill="#eb6834" fill-opacity="0.32" />
<circle cx="70.0" cy="384.0" r="3.2" fill="#eb6834" fill-opacity="0.32" />
<circle cx="70.0" cy="384.0" r="3.2" fill="#eb6834" fill-opacity="0.32" />
<circle cx="191.5" cy="312.0" r="3.2" fill="#2a78d6" fill-opacity="0.32" />
<circle cx="712.0" cy="96.0" r="5.0" fill="#2a78d6" fill-opacity="0.9" stroke="#fcfcfb" stroke-width="1.5"/>
<circle cx="191.5" cy="312.0" r="3.2" fill="#2a78d6" fill-opacity="0.32" />
<circle cx="70.0" cy="384.0" r="3.2" fill="#eb6834" fill-opacity="0.32" />
<circle cx="352.0" cy="384.0" r="3.2" fill="#eb6834" fill-opacity="0.32" />
<circle cx="191.5" cy="384.0" r="3.2" fill="#eb6834" fill-opacity="0.32" />
<circle cx="70.0" cy="384.0" r="3.2" fill="#eb6834" fill-opacity="0.32" />
<circle cx="70.0" cy="384.0" r="3.2" fill="#eb6834" fill-opacity="0.32" />
<circle cx="70.0" cy="384.0" r="3.2" fill="#eb6834" fill-opacity="0.32" />
<circle cx="191.5" cy="312.0" r="3.2" fill="#2a78d6" fill-opacity="0.32" />
<circle cx="352.0" cy="384.0" r="3.2" fill="#eb6834" fill-opacity="0.32" />
<circle cx="70.0" cy="384.0" r="3.2" fill="#eb6834" fill-opacity="0.32" />
<circle cx="312.9" cy="312.0" r="3.2" fill="#2a78d6" fill-opacity="0.32" />
<circle cx="262.5" cy="312.0" r="3.2" fill="#2a78d6" fill-opacity="0.32" />
<circle cx="70.0" cy="384.0" r="3.2" fill="#eb6834" fill-opacity="0.32" />
<circle cx="70.0" cy="384.0" r="3.2" fill="#eb6834" fill-opacity="0.32" />
<circle cx="70.0" cy="384.0" r="3.2" fill="#eb6834" fill-opacity="0.32" />
<circle cx="70.0" cy="384.0" r="3.2" fill="#eb6834" fill-opacity="0.32" />
<circle cx="70.0" cy="384.0" r="3.2" fill="#eb6834" fill-opacity="0.32" />
<circle cx="70.0" cy="384.0" r="3.2" fill="#eb6834" fill-opacity="0.32" />
<circle cx="191.5" cy="312.0" r="3.2" fill="#2a78d6" fill-opacity="0.32" />
<circle cx="70.0" cy="384.0" r="3.2" fill="#eb6834" fill-opacity="0.32" />
<circle cx="70.0" cy="384.0" r="3.2" fill="#eb6834" fill-opacity="0.32" />
<circle cx="70.0" cy="384.0" r="3.2" fill="#eb6834" fill-opacity="0.32" />
<circle cx="70.0" cy="384.0" r="3.2" fill="#eb6834" fill-opacity="0.32" />
<circle cx="70.0" cy="384.0" r="3.2" fill="#eb6834" fill-opacity="0.32" />
<circle cx="312.9" cy="312.0" r="3.2" fill="#2a78d6" fill-opacity="0.32" />
<circle cx="191.5" cy="384.0" r="3.2" fill="#eb6834" fill-opacity="0.32" />
<circle cx="70.0" cy="384.0" r="3.2" fill="#eb6834" fill-opacity="0.32" />
<circle cx="70.0" cy="384.0" r="3.2" fill="#eb6834" fill-opacity="0.32" />
<circle cx="70.0" cy="384.0" r="3.2" fill="#eb6834" fill-opacity="0.32" />
<circle cx="70.0" cy="384.0" r="3.2" fill="#eb6834" fill-opacity="0.32" />
<circle cx="70.0" cy="384.0" r="3.2" fill="#eb6834" fill-opacity="0.32" />
<circle cx="70.0" cy="384.0" r="3.2" fill="#eb6834" fill-opacity="0.32" />
<circle cx="70.0" cy="384.0" r="3.2" fill="#eb6834" fill-opacity="0.32" />
<circle cx="384.0" cy="384.0" r="3.2" fill="#eb6834" fill-opacity="0.32" />
<circle cx="384.0" cy="384.0" r="3.2" fill="#eb6834" fill-opacity="0.32" />
<circle cx="70.0" cy="384.0" r="3.2" fill="#eb6834" fill-opacity="0.32" />
<circle cx="262.5" cy="384.0" r="3.2" fill="#eb6834" fill-opacity="0.32" />
<circle cx="312.9" cy="312.0" r="3.2" fill="#2a78d6" fill-opacity="0.32" />
<circle cx="70.0" cy="384.0" r="3.2" fill="#eb6834" fill-opacity="0.32" />
<circle cx="70.0" cy="384.0" r="3.2" fill="#eb6834" fill-opacity="0.32" />
<circle cx="70.0" cy="384.0" r="3.2" fill="#eb6834" fill-opacity="0.32" />
<circle cx="312.9" cy="384.0" r="3.2" fill="#eb6834" fill-opacity="0.32" />
<circle cx="70.0" cy="384.0" r="3.2" fill="#eb6834" fill-opacity="0.32" />
<circle cx="70.0" cy="384.0" r="3.2" fill="#eb6834" fill-opacity="0.32" />
<circle cx="70.0" cy="384.0" r="3.2" fill="#eb6834" fill-opacity="0.32" />
<circle cx="191.5" cy="384.0" r="3.2" fill="#eb6834" fill-opacity="0.32" />
<circle cx="70.0" cy="384.0" r="3.2" fill="#eb6834" fill-opacity="0.32" />
<circle cx="70.0" cy="384.0" r="3.2" fill="#eb6834" fill-opacity="0.32" />
<circle cx="70.0" cy="384.0" r="3.2" fill="#eb6834" fill-opacity="0.32" />
<circle cx="191.5" cy="384.0" r="3.2" fill="#eb6834" fill-opacity="0.32" />
<circle cx="191.5" cy="312.0" r="3.2" fill="#2a78d6" fill-opacity="0.32" />
<circle cx="384.0" cy="312.0" r="3.2" fill="#2a78d6" fill-opacity="0.32" />
<circle cx="70.0" cy="384.0" r="3.2" fill="#eb6834" fill-opacity="0.32" />
<circle cx="191.5" cy="384.0" r="3.2" fill="#eb6834" fill-opacity="0.32" />
<circle cx="70.0" cy="384.0" r="3.2" fill="#eb6834" fill-opacity="0.32" />
<circle cx="70.0" cy="384.0" r="3.2" fill="#eb6834" fill-opacity="0.32" />
<circle cx="70.0" cy="384.0" r="3.2" fill="#eb6834" fill-opacity="0.32" />
<circle cx="70.0" cy="384.0" r="3.2" fill="#eb6834" fill-opacity="0.32" />
<circle cx="70.0" cy="384.0" r="3.2" fill="#eb6834" fill-opacity="0.32" />
<circle cx="191.5" cy="312.0" r="3.2" fill="#2a78d6" fill-opacity="0.32" />
<circle cx="70.0" cy="384.0" r="3.2" fill="#eb6834" fill-opacity="0.32" />
<circle cx="191.5" cy="384.0" r="3.2" fill="#eb6834" fill-opacity="0.32" />
<circle cx="70.0" cy="384.0" r="3.2" fill="#eb6834" fill-opacity="0.32" />
<circle cx="191.5" cy="312.0" r="3.2" fill="#2a78d6" fill-opacity="0.32" />
<circle cx="70.0" cy="384.0" r="3.2" fill="#eb6834" fill-opacity="0.32" />
<circle cx="70.0" cy="384.0" r="3.2" fill="#eb6834" fill-opacity="0.32" />
<circle cx="312.9" cy="384.0" r="3.2" fill="#eb6834" fill-opacity="0.32" />
<circle cx="70.0" cy="384.0" r="3.2" fill="#eb6834" fill-opacity="0.32" />
<circle cx="70.0" cy="384.0" r="3.2" fill="#eb6834" fill-opacity="0.32" />
<circle cx="70.0" cy="384.0" r="3.2" fill="#eb6834" fill-opacity="0.32" />
<circle cx="544.6" cy="384.0" r="5.0" fill="#eb6834" fill-opacity="0.9" stroke="#fcfcfb" stroke-width="1.5"/>
<circle cx="70.0" cy="384.0" r="3.2" fill="#eb6834" fill-opacity="0.32" />
<line x1="718.0" y1="96.0" x2="724.0" y2="96.0" stroke="#c3c2b7" stroke-width="0.8"/>
<text x="728.0" y="99.5" font-family='system-ui, -apple-system, "Segoe UI", sans-serif' font-size="11" fill="#52514e" text-anchor="start" font-weight="normal" style="">Qwen3 Technical Report  39m/5o</text>
<line x1="358.0" y1="168.0" x2="724.0" y2="168.0" stroke="#c3c2b7" stroke-width="0.8"/>
<text x="728.0" y="171.5" font-family='system-ui, -apple-system, "Segoe UI", sans-serif' font-size="11" fill="#52514e" text-anchor="start" font-weight="normal" style="">Unsupervised Cross-li…Scale  5m/4o</text>
<line x1="390.0" y1="240.0" x2="724.0" y2="240.0" stroke="#c3c2b7" stroke-width="0.8"/>
<text x="728.0" y="243.5" font-family='system-ui, -apple-system, "Segoe UI", sans-serif' font-size="11" fill="#52514e" text-anchor="start" font-weight="normal" style="">Learning Transferable…ision  6m/3o</text>
<line x1="268.5" y1="240.0" x2="724.0" y2="255.0" stroke="#c3c2b7" stroke-width="0.8"/>
<text x="728.0" y="258.5" font-family='system-ui, -apple-system, "Segoe UI", sans-serif' font-size="11" fill="#52514e" text-anchor="start" font-weight="normal" style="">ColBERT  3m/3o</text>
<line x1="268.5" y1="240.0" x2="724.0" y2="270.0" stroke="#c3c2b7" stroke-width="0.8"/>
<text x="728.0" y="273.5" font-family='system-ui, -apple-system, "Segoe UI", sans-serif' font-size="11" fill="#52514e" text-anchor="start" font-weight="normal" style="">High-Resolution Image…odels  3m/3o</text>
<line x1="550.6" y1="384.0" x2="724.0" y2="384.0" stroke="#c3c2b7" stroke-width="0.8"/>
<text x="728.0" y="387.5" font-family='system-ui, -apple-system, "Segoe UI", sans-serif' font-size="11" fill="#52514e" text-anchor="start" font-weight="normal" style="">Gemma 4 Technical Report  15m/1o</text>
<line x1="461.0" y1="384.0" x2="724.0" y2="369.0" stroke="#c3c2b7" stroke-width="0.8"/>
<text x="728.0" y="372.5" font-family='system-ui, -apple-system, "Segoe UI", sans-serif' font-size="11" fill="#52514e" text-anchor="start" font-weight="normal" style="">Sigmoid Loss for Lang…ining  9m/1o</text>
<line x1="461.0" y1="384.0" x2="724.0" y2="354.0" stroke="#c3c2b7" stroke-width="0.8"/>
<text x="728.0" y="357.5" font-family='system-ui, -apple-system, "Segoe UI", sans-serif' font-size="11" fill="#52514e" text-anchor="start" font-weight="normal" style="">C-Pack  9m/1o</text>
<line x1="461.0" y1="384.0" x2="724.0" y2="339.0" stroke="#c3c2b7" stroke-width="0.8"/>
<text x="728.0" y="342.5" font-family='system-ui, -apple-system, "Segoe UI", sans-serif' font-size="11" fill="#52514e" text-anchor="start" font-weight="normal" style="">A Multi-Task Embedder… LLMs  9m/1o</text>
<line x1="24" y1="466.0" x2="956.0" y2="466.0" stroke="#e1e0d9" stroke-width="1"/>
<text x="24.0" y="484.0" font-family='system-ui, -apple-system, "Segoe UI", sans-serif' font-size="11" fill="#52514e" text-anchor="start" font-weight="normal" style="">332 of 418 papers (79%) are cited by exactly one publisher — their own author. A ranking by model count alone hides that entirely.</text>
<text x="24.0" y="500.0" font-family='system-ui, -apple-system, "Segoe UI", sans-serif' font-size="11" fill="#898781" text-anchor="start" font-weight="normal" style="">Excluded: 1910.09700 on 13 publishers — the carbon-emissions field of the model-card template, and it would set the y-scale on its own.</text>
</svg>
