<svg xmlns="http://www.w3.org/2000/svg" width="920.0" height="548.0" viewBox="0 0 920.0 548.0" role="img" aria-label="Most downloaded text-generation models">
<title>Most downloaded text-generation models</title>
<desc>Horizontal bar chart of the most downloaded text-generation models on the Hugging Face Hub, trailing 30-day downloads.</desc>
<rect width="920.0" height="548.0" fill="#fcfcfb"/>
<text x="24.0" y="30.0" font-family='system-ui, -apple-system, "Segoe UI", sans-serif' font-size="16" fill="#0b0b0b" text-anchor="start" font-weight="600" style="">Most downloaded text-generation models</text><text x="24.0" y="50.0" font-family='system-ui, -apple-system, "Segoe UI", sans-serif' font-size="12" fill="#52514e" text-anchor="start" font-weight="normal" style="">top 15 of 1,000 tracked models · downloads in the trailing 30 days · snapshot 2026-09-08</text>
<line x1="292.0" y1="66.0" x2="292.0" y2="524.0" stroke="#c3c2b7" stroke-width="1"/>
<path d="M292.0,72.0 h540.0 q4,0 4,4 v12.0 q0,4 -4,4 h-540.0 z" fill="#2a78d6"/>
<text x="282.0" y="86.5" font-family='system-ui, -apple-system, "Segoe UI", sans-serif' font-size="12" fill="#52514e" text-anchor="end" font-weight="normal" style="">sentence-transformers/all-Min…L6-v2</text>
<text x="844.0" y="86.5" font-family='system-ui, -apple-system, "Segoe UI", sans-serif' font-size="12" fill="#0b0b0b" text-anchor="start" font-weight="600" style="">251.4M</text>
<path d="M292.0,102.0 h136.0 q4,0 4,4 v12.0 q0,4 -4,4 h-136.0 z" fill="#2a78d6"/>
<text x="282.0" y="116.5" font-family='system-ui, -apple-system, "Segoe UI", sans-serif' font-size="12" fill="#52514e" text-anchor="end" font-weight="normal" style="">BAAI/bge-small-en-v1.5</text>
<text x="440.0" y="116.5" font-family='system-ui, -apple-system, "Segoe UI", sans-serif' font-size="12" fill="#0b0b0b" text-anchor="start" font-weight="600" style="">64.7M</text>
<path d="M292.0,132.0 h105.8 q4,0 4,4 v12.0 q0,4 -4,4 h-105.8 z" fill="#2a78d6"/>
<text x="282.0" y="146.5" font-family='system-ui, -apple-system, "Segoe UI", sans-serif' font-size="12" fill="#52514e" text-anchor="end" font-weight="normal" style="">google-bert/bert-base-uncased</text>
<text x="409.8" y="146.5" font-family='system-ui, -apple-system, "Segoe UI", sans-serif' font-size="12" fill="#0b0b0b" text-anchor="start" font-weight="600" style="">50.7M</text>
<path d="M292.0,162.0 h77.7 q4,0 4,4 v12.0 q0,4 -4,4 h-77.7 z" fill="#2a78d6"/>
<text x="282.0" y="176.5" font-family='system-ui, -apple-system, "Segoe UI", sans-serif' font-size="12" fill="#52514e" text-anchor="end" font-weight="normal" style="">BAAI/bge-m3</text>
<text x="381.7" y="176.5" font-family='system-ui, -apple-system, "Segoe UI", sans-serif' font-size="12" fill="#0b0b0b" text-anchor="start" font-weight="600" style="">37.7M</text>
<path d="M292.0,192.0 h47.8 q4,0 4,4 v12.0 q0,4 -4,4 h-47.8 z" fill="#2a78d6"/>
<text x="282.0" y="206.5" font-family='system-ui, -apple-system, "Segoe UI", sans-serif' font-size="12" fill="#52514e" text-anchor="end" font-weight="normal" style="">amazon/chronos-2</text>
<text x="351.8" y="206.5" font-family='system-ui, -apple-system, "Segoe UI", sans-serif' font-size="12" fill="#0b0b0b" text-anchor="start" font-weight="600" style="">23.9M</text>
<path d="M292.0,222.0 h42.2 q4,0 4,4 v12.0 q0,4 -4,4 h-42.2 z" fill="#2a78d6"/>
<text x="282.0" y="236.5" font-family='system-ui, -apple-system, "Segoe UI", sans-serif' font-size="12" fill="#52514e" text-anchor="end" font-weight="normal" style="">Qwen/Qwen3-0.6B</text>
<text x="346.2" y="236.5" font-family='system-ui, -apple-system, "Segoe UI", sans-serif' font-size="12" fill="#0b0b0b" text-anchor="start" font-weight="600" style="">21.3M</text>
<path d="M292.0,252.0 h40.4 q4,0 4,4 v12.0 q0,4 -4,4 h-40.4 z" fill="#2a78d6"/>
<text x="282.0" y="266.5" font-family='system-ui, -apple-system, "Segoe UI", sans-serif' font-size="12" fill="#52514e" text-anchor="end" font-weight="normal" style="">openai/clip-vit-base-patch32</text>
<text x="344.4" y="266.5" font-family='system-ui, -apple-system, "Segoe UI", sans-serif' font-size="12" fill="#0b0b0b" text-anchor="start" font-weight="600" style="">20.5M</text>
<path d="M292.0,282.0 h36.9 q4,0 4,4 v12.0 q0,4 -4,4 h-36.9 z" fill="#2a78d6"/>
<text x="282.0" y="296.5" font-family='system-ui, -apple-system, "Segoe UI", sans-serif' font-size="12" fill="#52514e" text-anchor="end" font-weight="normal" style="">Comfy-Org/MiniMax-H3</text>
<text x="340.9" y="296.5" font-family='system-ui, -apple-system, "Segoe UI", sans-serif' font-size="12" fill="#0b0b0b" text-anchor="start" font-weight="600" style="">18.9M</text>
<path d="M292.0,312.0 h35.0 q4,0 4,4 v12.0 q0,4 -4,4 h-35.0 z" fill="#2a78d6"/>
<text x="282.0" y="326.5" font-family='system-ui, -apple-system, "Segoe UI", sans-serif' font-size="12" fill="#52514e" text-anchor="end" font-weight="normal" style="">BAAI/bge-reranker-v2-m3</text>
<text x="339.0" y="326.5" font-family='system-ui, -apple-system, "Segoe UI", sans-serif' font-size="12" fill="#0b0b0b" text-anchor="start" font-weight="600" style="">18M</text>
<path d="M292.0,342.0 h33.0 q4,0 4,4 v12.0 q0,4 -4,4 h-33.0 z" fill="#2a78d6"/>
<text x="282.0" y="356.5" font-family='system-ui, -apple-system, "Segoe UI", sans-serif' font-size="12" fill="#52514e" text-anchor="end" font-weight="normal" style="">Comfy-Org/stable-diffusion-v1…chive</text>
<text x="337.0" y="356.5" font-family='system-ui, -apple-system, "Segoe UI", sans-serif' font-size="12" fill="#0b0b0b" text-anchor="start" font-weight="600" style="">17.1M</text>
<path d="M292.0,372.0 h31.1 q4,0 4,4 v12.0 q0,4 -4,4 h-31.1 z" fill="#2a78d6"/>
<text x="282.0" y="386.5" font-family='system-ui, -apple-system, "Segoe UI", sans-serif' font-size="12" fill="#52514e" text-anchor="end" font-weight="normal" style="">nomic-ai/nomic-embed-text-v1.5</text>
<text x="335.1" y="386.5" font-family='system-ui, -apple-system, "Segoe UI", sans-serif' font-size="12" fill="#0b0b0b" text-anchor="start" font-weight="600" style="">16.2M</text>
<path d="M292.0,402.0 h27.7 q4,0 4,4 v12.0 q0,4 -4,4 h-27.7 z" fill="#2a78d6"/>
<text x="282.0" y="416.5" font-family='system-ui, -apple-system, "Segoe UI", sans-serif' font-size="12" fill="#52514e" text-anchor="end" font-weight="normal" style="">openai-community/gpt2</text>
<text x="331.7" y="416.5" font-family='system-ui, -apple-system, "Segoe UI", sans-serif' font-size="12" fill="#0b0b0b" text-anchor="start" font-weight="600" style="">14.6M</text>
<path d="M292.0,432.0 h27.3 q4,0 4,4 v12.0 q0,4 -4,4 h-27.3 z" fill="#2a78d6"/>
<text x="282.0" y="446.5" font-family='system-ui, -apple-system, "Segoe UI", sans-serif' font-size="12" fill="#52514e" text-anchor="end" font-weight="normal" style="">Qwen/Qwen3-VL-8B-Instruct</text>
<text x="331.3" y="446.5" font-family='system-ui, -apple-system, "Segoe UI", sans-serif' font-size="12" fill="#0b0b0b" text-anchor="start" font-weight="600" style="">14.5M</text>
<path d="M292.0,462.0 h24.1 q4,0 4,4 v12.0 q0,4 -4,4 h-24.1 z" fill="#2a78d6"/>
<text x="282.0" y="476.5" font-family='system-ui, -apple-system, "Segoe UI", sans-serif' font-size="12" fill="#52514e" text-anchor="end" font-weight="normal" style="">Qwen/Qwen3-8B</text>
<text x="328.1" y="476.5" font-family='system-ui, -apple-system, "Segoe UI", sans-serif' font-size="12" fill="#0b0b0b" text-anchor="start" font-weight="600" style="">13M</text>
<path d="M292.0,492.0 h23.2 q4,0 4,4 v12.0 q0,4 -4,4 h-23.2 z" fill="#2a78d6"/>
<text x="282.0" y="506.5" font-family='system-ui, -apple-system, "Segoe UI", sans-serif' font-size="12" fill="#52514e" text-anchor="end" font-weight="normal" style="">unsloth/Qwen3-Coder-30B-A3B-I…-GGUF</text>
<text x="327.2" y="506.5" font-family='system-ui, -apple-system, "Segoe UI", sans-serif' font-size="12" fill="#0b0b0b" text-anchor="start" font-weight="600" style="">12.6M</text>
<text x="24.0" y="540.0" font-family='system-ui, -apple-system, "Segoe UI", sans-serif' font-size="10" fill="#898781" text-anchor="start" font-weight="normal" style="">source: wss-hugging-face · hf.models.text-generation · CC-BY-4.0</text>
</svg>
